<?xml version="1.0"?>
<svg xmlns="http://www.w3.org/2000/svg" xmlns:lc="https://librecad.org" xmlns:xlink="http://www.w3.org/1999/xlink" width="146mm" height="146mm" viewBox="0 0 146 146">
    <g lc:layername="0" lc:is_locked="false" lc:is_construction="false" fill="none" stroke="black" stroke-width="1">
        <line x1="26.88714719" y1="23.97334675" x2="28.18214758" y2="24.46434244"/>
        <path d="M26.88714719,23.97334675 A0.5,0.5 0 0,0 26.35633339,24.08731742 "/>
        <line x1="26.14106422" y1="24.30258659" x2="26.35633339" y2="24.08731742"/>
        <path d="M26.14106422,24.30258659 A0.5,0.5 0 0,0 26.14106422,25.00969337 "/>
        <line x1="27.76740982" y1="26.63603897" x2="26.14106422" y2="25.00969337"/>
        <path d="M27.76740982,26.91888168 A0.2,0.2 0 0,0 27.76740982,26.63603897 "/>
        <line x1="26.91888168" y1="27.76740982" x2="27.76740982" y2="26.91888168"/>
        <path d="M26.63603897,27.76740982 A0.2,0.2 0 0,0 26.91888168,27.76740982 "/>
        <line x1="25.00969337" y1="26.14106422" x2="26.63603897" y2="27.76740982"/>
        <path d="M25.00969337,26.14106422 A0.5,0.5 0 0,0 24.30258659,26.14106422 "/>
        <line x1="23.97643588" y1="26.46721493" x2="24.30258659" y2="26.14106422"/>
        <path d="M23.97643588,26.46721493 A0.5,0.5 0 0,0 23.88478157,27.04834272 "/>
        <line x1="24.46434244" y1="28.18214758" x2="23.88478157" y2="27.04834272"/>
        <path d="M26.00327159,33.21398954 A10,10 0 0,0 24.46434244,28.18214758 "/>
        <path d="M26.00327159,33.21398954 A7,7 0 0,0 32.18870501,39.95282679 "/>
        <path d="M38.34324918,43.0654529 A10,10 0 0,0 32.18870501,39.95282679 "/>
        <path d="M56,65.93910476 A10,10 0 0,0 53.31353702,59.11912116 "/>
        <line x1="56" y1="65.93910476" x2="56" y2="80.06089524"/>
        <path d="M53.31353702,86.88087884 A10,10 0 0,0 56,80.06089524 "/>
        <line x1="38.34324918" y1="102.9345471" x2="53.31353702" y2="86.88087884"/>
        <path d="M32.18870501,106.04717321 A10,10 0 0,0 38.34324918,102.9345471 "/>
        <path d="M32.18870501,106.04717321 A7,7 0 0,0 26.00327159,112.78601046 "/>
        <path d="M24.46434244,117.81785242 A10,10 0 0,0 26.00327159,112.78601046 "/>
        <line x1="23.97334675" y1="119.11285281" x2="24.46434244" y2="117.81785242"/>
        <path d="M23.97334675,119.11285281 A0.5,0.5 0 0,0 24.08731742,119.64366661 "/>
        <line x1="24.30258659" y1="119.85893578" x2="24.08731742" y2="119.64366661"/>
        <path d="M24.30258659,119.85893578 A0.5,0.5 0 0,0 25.00969337,119.85893578 "/>
        <line x1="26.63603897" y1="118.23259018" x2="25.00969337" y2="119.85893578"/>
        <path d="M26.91888168,118.23259018 A0.2,0.2 0 0,0 26.63603897,118.23259018 "/>
        <line x1="27.76740982" y1="119.08111832" x2="26.91888168" y2="118.23259018"/>
        <path d="M27.76740982,119.36396103 A0.2,0.2 0 0,0 27.76740982,119.08111832 "/>
        <line x1="26.14106422" y1="120.99030663" x2="27.76740982" y2="119.36396103"/>
        <path d="M26.14106422,120.99030663 A0.5,0.5 0 0,0 26.14106422,121.69741341 "/>
        <line x1="26.46721493" y1="122.02356412" x2="26.14106422" y2="121.69741341"/>
        <path d="M26.46721493,122.02356412 A0.5,0.5 0 0,0 27.04834272,122.11521843 "/>
        <line x1="28.18214758" y1="121.53565756" x2="27.04834272" y2="122.11521843"/>
        <path d="M33.21398954,119.99672841 A10,10 0 0,0 28.18214758,121.53565756 "/>
        <path d="M33.21398954,119.99672841 A7,7 0 0,0 39.95282679,113.81129499 "/>
        <path d="M43.0654529,107.65675082 A10,10 0 0,0 39.95282679,113.81129499 "/>
        <line x1="59.11912116" y1="92.68646298" x2="43.0654529" y2="107.65675082"/>
        <path d="M65.93910476,90 A10,10 0 0,0 59.11912116,92.68646298 "/>
        <line x1="65.93910476" y1="90" x2="80.06089524" y2="90"/>
        <path d="M86.88087884,92.68646298 A10,10 0 0,0 80.06089524,90 "/>
        <line x1="102.9345471" y1="107.65675082" x2="86.88087884" y2="92.68646298"/>
        <path d="M106.04717321,113.81129499 A10,10 0 0,0 102.9345471,107.65675082 "/>
        <path d="M106.04717321,113.81129499 A7,7 0 0,0 112.78601046,119.99672841 "/>
        <path d="M117.81785242,121.53565756 A10,10 0 0,0 112.78601046,119.99672841 "/>
        <line x1="119.11285281" y1="122.02665325" x2="117.81785242" y2="121.53565756"/>
        <path d="M119.11285281,122.02665325 A0.5,0.5 0 0,0 119.64366661,121.91268258 "/>
        <line x1="119.85893578" y1="121.69741341" x2="119.64366661" y2="121.91268258"/>
        <path d="M119.85893578,121.69741341 A0.5,0.5 0 0,0 119.85893578,120.99030663 "/>
        <line x1="118.23259018" y1="119.36396103" x2="119.85893578" y2="120.99030663"/>
        <path d="M118.23259018,119.08111832 A0.2,0.2 0 0,0 118.23259018,119.36396103 "/>
        <line x1="119.08111832" y1="118.23259018" x2="118.23259018" y2="119.08111832"/>
        <path d="M119.36396103,118.23259018 A0.2,0.2 0 0,0 119.08111832,118.23259018 "/>
        <line x1="120.99030663" y1="119.85893578" x2="119.36396103" y2="118.23259018"/>
        <path d="M120.99030663,119.85893578 A0.5,0.5 0 0,0 121.69741341,119.85893578 "/>
        <line x1="122.02356412" y1="119.53278507" x2="121.69741341" y2="119.85893578"/>
        <path d="M122.02356412,119.53278507 A0.5,0.5 0 0,0 122.11521843,118.95165728 "/>
        <line x1="121.53565756" y1="117.81785242" x2="122.11521843" y2="118.95165728"/>
        <path d="M119.99672841,112.78601046 A10,10 0 0,0 121.53565756,117.81785242 "/>
        <path d="M119.99672841,112.78601046 A7,7 0 0,0 113.81129499,106.04717321 "/>
        <path d="M107.65675082,102.9345471 A10,10 0 0,0 113.81129499,106.04717321 "/>
        <line x1="92.68646298" y1="86.88087884" x2="107.65675082" y2="102.9345471"/>
        <path d="M90,80.06089524 A10,10 0 0,0 92.68646298,86.88087884 "/>
        <line x1="90" y1="80.06089524" x2="90" y2="65.93910476"/>
        <path d="M92.68646298,59.11912116 A10,10 0 0,0 90,65.93910476 "/>
        <line x1="107.65675082" y1="43.0654529" x2="92.68646298" y2="59.11912116"/>
        <path d="M113.81129499,39.95282679 A10,10 0 0,0 107.65675082,43.0654529 "/>
        <path d="M113.81129499,39.95282679 A7,7 0 0,0 119.99672841,33.21398954 "/>
        <path d="M121.53565756,28.18214758 A10,10 0 0,0 119.99672841,33.21398954 "/>
        <line x1="122.02665325" y1="26.88714719" x2="121.53565756" y2="28.18214758"/>
        <path d="M122.02665325,26.88714719 A0.5,0.5 0 0,0 121.91268258,26.35633339 "/>
        <line x1="121.69741341" y1="26.14106422" x2="121.91268258" y2="26.35633339"/>
        <path d="M121.69741341,26.14106422 A0.5,0.5 0 0,0 120.99030663,26.14106422 "/>
        <line x1="119.36396103" y1="27.76740982" x2="120.99030663" y2="26.14106422"/>
        <path d="M119.08111832,27.76740982 A0.2,0.2 0 0,0 119.36396103,27.76740982 "/>
        <line x1="118.23259018" y1="26.91888168" x2="119.08111832" y2="27.76740982"/>
        <path d="M118.23259018,26.63603897 A0.2,0.2 0 0,0 118.23259018,26.91888168 "/>
        <line x1="119.85893578" y1="25.00969337" x2="118.23259018" y2="26.63603897"/>
        <path d="M119.85893578,25.00969337 A0.5,0.5 0 0,0 119.85893578,24.30258659 "/>
        <line x1="119.53278507" y1="23.97643588" x2="119.85893578" y2="24.30258659"/>
        <path d="M119.53278507,23.97643588 A0.5,0.5 0 0,0 118.95165728,23.88478157 "/>
        <line x1="117.81785242" y1="24.46434244" x2="118.95165728" y2="23.88478157"/>
        <path d="M112.78601046,26.00327159 A10,10 0 0,0 117.81785242,24.46434244 "/>
        <path d="M112.78601046,26.00327159 A7,7 0 0,0 106.04717321,32.18870501 "/>
        <path d="M102.9345471,38.34324918 A10,10 0 0,0 106.04717321,32.18870501 "/>
        <line x1="86.88087884" y1="53.31353702" x2="102.9345471" y2="38.34324918"/>
        <path d="M80.06089524,56 A10,10 0 0,0 86.88087884,53.31353702 "/>
        <line x1="80.06089524" y1="56" x2="65.93910476" y2="56"/>
        <path d="M59.11912116,53.31353702 A10,10 0 0,0 65.93910476,56 "/>
        <line x1="43.0654529" y1="38.34324918" x2="59.11912116" y2="53.31353702"/>
        <path d="M39.95282679,32.18870501 A10,10 0 0,0 43.0654529,38.34324918 "/>
        <path d="M39.95282679,32.18870501 A7,7 0 0,0 33.21398954,26.00327159 "/>
        <path d="M28.18214758,24.46434244 A10,10 0 0,0 33.21398954,26.00327159 "/>
        <circle cx="113" cy="33" r="4.25"/>
        <line x1="103.73690117" y1="41.4145707" x2="104.5854293" y2="42.26309883"/>
        <path d="M103.73690117,41.13172798 A0.2,0.2 0 0,0 103.73690117,41.4145707 "/>
        <line x1="103.73690117" y1="41.13172798" x2="106.63603897" y2="38.23259018"/>
        <path d="M106.91888168,38.23259018 A0.2,0.2 0 0,0 106.63603897,38.23259018 "/>
        <line x1="106.91888168" y1="38.23259018" x2="107.76740982" y2="39.08111832"/>
        <path d="M107.76740982,39.36396103 A0.2,0.2 0 0,0 107.76740982,39.08111832 "/>
        <line x1="107.76740982" y1="39.36396103" x2="104.86827202" y2="42.26309883"/>
        <path d="M104.5854293,42.26309883 A0.2,0.2 0 0,0 104.86827202,42.26309883 "/>
        <circle cx="113" cy="113" r="4.25"/>
        <line x1="104.5854293" y1="103.73690117" x2="103.73690117" y2="104.5854293"/>
        <path d="M104.86827202,103.73690117 A0.2,0.2 0 0,0 104.5854293,103.73690117 "/>
        <line x1="104.86827202" y1="103.73690117" x2="107.76740982" y2="106.63603897"/>
        <path d="M107.76740982,106.91888168 A0.2,0.2 0 0,0 107.76740982,106.63603897 "/>
        <line x1="107.76740982" y1="106.91888168" x2="106.91888168" y2="107.76740982"/>
        <path d="M106.63603897,107.76740982 A0.2,0.2 0 0,0 106.91888168,107.76740982 "/>
        <line x1="106.63603897" y1="107.76740982" x2="103.73690117" y2="104.86827202"/>
        <path d="M103.73690117,104.5854293 A0.2,0.2 0 0,0 103.73690117,104.86827202 "/>
        <circle cx="33" cy="113" r="4.25"/>
        <line x1="42.26309883" y1="104.5854293" x2="41.4145707" y2="103.73690117"/>
        <path d="M42.26309883,104.86827202 A0.2,0.2 0 0,0 42.26309883,104.5854293 "/>
        <line x1="42.26309883" y1="104.86827202" x2="39.36396103" y2="107.76740982"/>
        <path d="M39.08111832,107.76740982 A0.2,0.2 0 0,0 39.36396103,107.76740982 "/>
        <line x1="39.08111832" y1="107.76740982" x2="38.23259018" y2="106.91888168"/>
        <path d="M38.23259018,106.63603897 A0.2,0.2 0 0,0 38.23259018,106.91888168 "/>
        <line x1="38.23259018" y1="106.63603897" x2="41.13172798" y2="103.73690117"/>
        <path d="M41.4145707,103.73690117 A0.2,0.2 0 0,0 41.13172798,103.73690117 "/>
        <circle cx="33" cy="33" r="4.25"/>
        <line x1="41.4145707" y1="42.26309883" x2="42.26309883" y2="41.4145707"/>
        <path d="M41.13172798,42.26309883 A0.2,0.2 0 0,0 41.4145707,42.26309883 "/>
        <line x1="41.13172798" y1="42.26309883" x2="38.23259018" y2="39.36396103"/>
        <path d="M38.23259018,39.08111832 A0.2,0.2 0 0,0 38.23259018,39.36396103 "/>
        <line x1="38.23259018" y1="39.08111832" x2="39.08111832" y2="38.23259018"/>
        <path d="M39.36396103,38.23259018 A0.2,0.2 0 0,0 39.08111832,38.23259018 "/>
        <line x1="39.36396103" y1="38.23259018" x2="42.26309883" y2="41.13172798"/>
        <path d="M42.26309883,41.4145707 A0.2,0.2 0 0,0 42.26309883,41.13172798 "/>
        <line x1="53.3135" y1="59.1191" x2="38.3432" y2="43.0655"/>
        <circle cx="113" cy="113" r="33"/>
        <circle cx="113" cy="33" r="33"/>
        <circle cx="33" cy="33" r="33"/>
        <circle cx="33" cy="113" r="33"/>
    </g>
</svg>
