<?xml version="1.0"?>
<svg xmlns="http://www.w3.org/2000/svg" xmlns:lc="https://librecad.org" xmlns:xlink="http://www.w3.org/1999/xlink" width="98.34002146mm" height="98.34002146mm" viewBox="0 0 98.34002146 98.34002146">
    <g lc:layername="0" lc:is_locked="false" lc:is_construction="false" fill="none" stroke="black" stroke-width="1">
        <line x1="3.05715792" y1="0.14335748" x2="4.35215831" y2="0.63435317"/>
        <path d="M3.05715792,0.14335748 A0.5,0.5 0 0,0 2.52634412,0.25732815 "/>
        <line x1="2.31107495" y1="0.47259732" x2="2.52634412" y2="0.25732815"/>
        <path d="M2.31107495,0.47259732 A0.5,0.5 0 0,0 2.31107495,1.1797041 "/>
        <line x1="3.93742055" y1="2.8060497" x2="2.31107495" y2="1.1797041"/>
        <path d="M3.93742055,3.08889241 A0.2,0.2 0 0,0 3.93742055,2.8060497 "/>
        <line x1="3.08889241" y1="3.93742055" x2="3.93742055" y2="3.08889241"/>
        <path d="M2.8060497,3.93742055 A0.2,0.2 0 0,0 3.08889241,3.93742055 "/>
        <line x1="1.1797041" y1="2.31107495" x2="2.8060497" y2="3.93742055"/>
        <path d="M1.1797041,2.31107495 A0.5,0.5 0 0,0 0.47259732,2.31107495 "/>
        <line x1="0.14644661" y1="2.63722566" x2="0.47259732" y2="2.31107495"/>
        <path d="M0.14644661,2.63722566 A0.5,0.5 0 0,0 0.0547923,3.21835345 "/>
        <line x1="0.63435317" y1="4.35215831" x2="0.0547923" y2="3.21835345"/>
        <path d="M2.17328232,9.38400027 A10,10 0 0,0 0.63435317,4.35215831 "/>
        <path d="M2.17328232,9.38400027 A7,7 0 0,0 8.35871574,16.12283752 "/>
        <path d="M14.51325991,19.23546363 A10,10 0 0,0 8.35871574,16.12283752 "/>
        <path d="M32.17001073,42.10911548 A10,10 0 0,0 29.48354774,35.28913188 "/>
        <line x1="32.17001073" y1="42.10911548" x2="32.17001073" y2="56.23090597"/>
        <path d="M29.48354774,63.05088957 A10,10 0 0,0 32.17001073,56.23090597 "/>
        <line x1="14.51325991" y1="79.10455783" x2="29.48354774" y2="63.05088957"/>
        <path d="M8.35871574,82.21718393 A10,10 0 0,0 14.51325991,79.10455783 "/>
        <path d="M8.35871574,82.21718393 A7,7 0 0,0 2.17328232,88.95602119 "/>
        <path d="M0.63435317,93.98786315 A10,10 0 0,0 2.17328232,88.95602119 "/>
        <line x1="0.14335748" y1="95.28286354" x2="0.63435317" y2="93.98786315"/>
        <path d="M0.14335748,95.28286354 A0.5,0.5 0 0,0 0.25732815,95.81367734 "/>
        <line x1="0.47259732" y1="96.02894651" x2="0.25732815" y2="95.81367734"/>
        <path d="M0.47259732,96.02894651 A0.5,0.5 0 0,0 1.1797041,96.02894651 "/>
        <line x1="2.8060497" y1="94.40260091" x2="1.1797041" y2="96.02894651"/>
        <path d="M3.08889241,94.40260091 A0.2,0.2 0 0,0 2.8060497,94.40260091 "/>
        <line x1="3.93742055" y1="95.25112905" x2="3.08889241" y2="94.40260091"/>
        <path d="M3.93742055,95.53397176 A0.2,0.2 0 0,0 3.93742055,95.25112905 "/>
        <line x1="2.31107495" y1="97.16031736" x2="3.93742055" y2="95.53397176"/>
        <path d="M2.31107495,97.16031736 A0.5,0.5 0 0,0 2.31107495,97.86742414 "/>
        <line x1="2.63722566" y1="98.19357485" x2="2.31107495" y2="97.86742414"/>
        <path d="M2.63722566,98.19357485 A0.5,0.5 0 0,0 3.21835345,98.28522915 "/>
        <line x1="4.35215831" y1="97.70566829" x2="3.21835345" y2="98.28522915"/>
        <path d="M9.38400027,96.16673914 A10,10 0 0,0 4.35215831,97.70566829 "/>
        <path d="M9.38400027,96.16673914 A7,7 0 0,0 16.12283752,89.98130572 "/>
        <path d="M19.23546363,83.82676155 A10,10 0 0,0 16.12283752,89.98130572 "/>
        <line x1="35.28913188" y1="68.85647371" x2="19.23546363" y2="83.82676155"/>
        <path d="M42.10911548,66.17001073 A10,10 0 0,0 35.28913188,68.85647371 "/>
        <line x1="42.10911548" y1="66.17001073" x2="56.23090597" y2="66.17001073"/>
        <path d="M63.05088957,68.85647371 A10,10 0 0,0 56.23090597,66.17001073 "/>
        <line x1="79.10455783" y1="83.82676155" x2="63.05088957" y2="68.85647371"/>
        <path d="M82.21718393,89.98130572 A10,10 0 0,0 79.10455783,83.82676155 "/>
        <path d="M82.21718393,89.98130572 A7,7 0 0,0 88.95602119,96.16673914 "/>
        <path d="M93.98786315,97.70566829 A10,10 0 0,0 88.95602119,96.16673914 "/>
        <line x1="95.28286354" y1="98.19666398" x2="93.98786315" y2="97.70566829"/>
        <path d="M95.28286354,98.19666398 A0.5,0.5 0 0,0 95.81367734,98.08269331 "/>
        <line x1="96.02894651" y1="97.86742414" x2="95.81367734" y2="98.08269331"/>
        <path d="M96.02894651,97.86742414 A0.5,0.5 0 0,0 96.02894651,97.16031736 "/>
        <line x1="94.40260091" y1="95.53397176" x2="96.02894651" y2="97.16031736"/>
        <path d="M94.40260091,95.25112905 A0.2,0.2 0 0,0 94.40260091,95.53397176 "/>
        <line x1="95.25112905" y1="94.40260091" x2="94.40260091" y2="95.25112905"/>
        <path d="M95.53397176,94.40260091 A0.2,0.2 0 0,0 95.25112905,94.40260091 "/>
        <line x1="97.16031736" y1="96.02894651" x2="95.53397176" y2="94.40260091"/>
        <path d="M97.16031736,96.02894651 A0.5,0.5 0 0,0 97.86742414,96.02894651 "/>
        <line x1="98.19357485" y1="95.7027958" x2="97.86742414" y2="96.02894651"/>
        <path d="M98.19357485,95.7027958 A0.5,0.5 0 0,0 98.28522915,95.12166801 "/>
        <line x1="97.70566829" y1="93.98786315" x2="98.28522915" y2="95.12166801"/>
        <path d="M96.16673914,88.95602119 A10,10 0 0,0 97.70566829,93.98786315 "/>
        <path d="M96.16673914,88.95602119 A7,7 0 0,0 89.98130572,82.21718393 "/>
        <path d="M83.82676155,79.10455783 A10,10 0 0,0 89.98130572,82.21718393 "/>
        <line x1="68.85647371" y1="63.05088957" x2="83.82676155" y2="79.10455783"/>
        <path d="M66.17001073,56.23090597 A10,10 0 0,0 68.85647371,63.05088957 "/>
        <line x1="66.17001073" y1="56.23090597" x2="66.17001073" y2="42.10911548"/>
        <path d="M68.85647371,35.28913188 A10,10 0 0,0 66.17001073,42.10911548 "/>
        <line x1="83.82676155" y1="19.23546363" x2="68.85647371" y2="35.28913188"/>
        <path d="M89.98130572,16.12283752 A10,10 0 0,0 83.82676155,19.23546363 "/>
        <path d="M89.98130572,16.12283752 A7,7 0 0,0 96.16673914,9.38400027 "/>
        <path d="M97.70566829,4.35215831 A10,10 0 0,0 96.16673914,9.38400027 "/>
        <line x1="98.19666398" y1="3.05715792" x2="97.70566829" y2="4.35215831"/>
        <path d="M98.19666398,3.05715792 A0.5,0.5 0 0,0 98.08269331,2.52634412 "/>
        <line x1="97.86742414" y1="2.31107495" x2="98.08269331" y2="2.52634412"/>
        <path d="M97.86742414,2.31107495 A0.5,0.5 0 0,0 97.16031736,2.31107495 "/>
        <line x1="95.53397176" y1="3.93742055" x2="97.16031736" y2="2.31107495"/>
        <path d="M95.25112905,3.93742055 A0.2,0.2 0 0,0 95.53397176,3.93742055 "/>
        <line x1="94.40260091" y1="3.08889241" x2="95.25112905" y2="3.93742055"/>
        <path d="M94.40260091,2.8060497 A0.2,0.2 0 0,0 94.40260091,3.08889241 "/>
        <line x1="96.02894651" y1="1.1797041" x2="94.40260091" y2="2.8060497"/>
        <path d="M96.02894651,1.1797041 A0.5,0.5 0 0,0 96.02894651,0.47259732 "/>
        <line x1="95.7027958" y1="0.14644661" x2="96.02894651" y2="0.47259732"/>
        <path d="M95.7027958,0.14644661 A0.5,0.5 0 0,0 95.12166801,0.0547923 "/>
        <line x1="93.98786315" y1="0.63435317" x2="95.12166801" y2="0.0547923"/>
        <path d="M88.95602119,2.17328232 A10,10 0 0,0 93.98786315,0.63435317 "/>
        <path d="M88.95602119,2.17328232 A7,7 0 0,0 82.21718393,8.35871574 "/>
        <path d="M79.10455783,14.51325991 A10,10 0 0,0 82.21718393,8.35871574 "/>
        <line x1="63.05088957" y1="29.48354774" x2="79.10455783" y2="14.51325991"/>
        <path d="M56.23090597,32.17001073 A10,10 0 0,0 63.05088957,29.48354774 "/>
        <line x1="56.23090597" y1="32.17001073" x2="42.10911548" y2="32.17001073"/>
        <path d="M35.28913188,29.48354774 A10,10 0 0,0 42.10911548,32.17001073 "/>
        <line x1="19.23546363" y1="14.51325991" x2="35.28913188" y2="29.48354774"/>
        <path d="M16.12283752,8.35871574 A10,10 0 0,0 19.23546363,14.51325991 "/>
        <path d="M16.12283752,8.35871574 A7,7 0 0,0 9.38400027,2.17328232 "/>
        <path d="M4.35215831,0.63435317 A10,10 0 0,0 9.38400027,2.17328232 "/>
        <circle cx="89.17001073" cy="9.17001073" r="4.25"/>
        <line x1="79.90691189" y1="17.58458142" x2="80.75544003" y2="18.43310956"/>
        <path d="M79.90691189,17.30173871 A0.2,0.2 0 0,0 79.90691189,17.58458142 "/>
        <line x1="79.90691189" y1="17.30173871" x2="82.8060497" y2="14.40260091"/>
        <path d="M83.08889241,14.40260091 A0.2,0.2 0 0,0 82.8060497,14.40260091 "/>
        <line x1="83.08889241" y1="14.40260091" x2="83.93742055" y2="15.25112905"/>
        <path d="M83.93742055,15.53397176 A0.2,0.2 0 0,0 83.93742055,15.25112905 "/>
        <line x1="83.93742055" y1="15.53397176" x2="81.03828274" y2="18.43310956"/>
        <path d="M80.75544003,18.43310956 A0.2,0.2 0 0,0 81.03828274,18.43310956 "/>
        <circle cx="89.17001073" cy="89.17001073" r="4.25"/>
        <line x1="80.75544003" y1="79.90691189" x2="79.90691189" y2="80.75544003"/>
        <path d="M81.03828274,79.90691189 A0.2,0.2 0 0,0 80.75544003,79.90691189 "/>
        <line x1="81.03828274" y1="79.90691189" x2="83.93742055" y2="82.8060497"/>
        <path d="M83.93742055,83.08889241 A0.2,0.2 0 0,0 83.93742055,82.8060497 "/>
        <line x1="83.93742055" y1="83.08889241" x2="83.08889241" y2="83.93742055"/>
        <path d="M82.8060497,83.93742055 A0.2,0.2 0 0,0 83.08889241,83.93742055 "/>
        <line x1="82.8060497" y1="83.93742055" x2="79.90691189" y2="81.03828274"/>
        <path d="M79.90691189,80.75544003 A0.2,0.2 0 0,0 79.90691189,81.03828274 "/>
        <circle cx="9.17001073" cy="89.17001073" r="4.25"/>
        <line x1="18.43310956" y1="80.75544003" x2="17.58458142" y2="79.90691189"/>
        <path d="M18.43310956,81.03828274 A0.2,0.2 0 0,0 18.43310956,80.75544003 "/>
        <line x1="18.43310956" y1="81.03828274" x2="15.53397176" y2="83.93742055"/>
        <path d="M15.25112905,83.93742055 A0.2,0.2 0 0,0 15.53397176,83.93742055 "/>
        <line x1="15.25112905" y1="83.93742055" x2="14.40260091" y2="83.08889241"/>
        <path d="M14.40260091,82.8060497 A0.2,0.2 0 0,0 14.40260091,83.08889241 "/>
        <line x1="14.40260091" y1="82.8060497" x2="17.30173871" y2="79.90691189"/>
        <path d="M17.58458142,79.90691189 A0.2,0.2 0 0,0 17.30173871,79.90691189 "/>
        <circle cx="9.17001073" cy="9.17001073" r="4.25"/>
        <line x1="17.58458142" y1="18.43310956" x2="18.43310956" y2="17.58458142"/>
        <path d="M17.30173871,18.43310956 A0.2,0.2 0 0,0 17.58458142,18.43310956 "/>
        <line x1="17.30173871" y1="18.43310956" x2="14.40260091" y2="15.53397176"/>
        <path d="M14.40260091,15.25112905 A0.2,0.2 0 0,0 14.40260091,15.53397176 "/>
        <line x1="14.40260091" y1="15.25112905" x2="15.25112905" y2="14.40260091"/>
        <path d="M15.53397176,14.40260091 A0.2,0.2 0 0,0 15.25112905,14.40260091 "/>
        <line x1="15.53397176" y1="14.40260091" x2="18.43310956" y2="17.30173871"/>
        <path d="M18.43310956,17.58458142 A0.2,0.2 0 0,0 18.43310956,17.30173871 "/>
        <line x1="29.48351073" y1="35.28911073" x2="14.51321073" y2="19.23551073"/>
    </g>
</svg>
